<svg width="16" height="18" viewBox="0 0 16 18" fill="none" xmlns="http://www.w3.org/2000/svg">
<path d="M3.55469 0H3.84687C4.21014 0.15613 4.34452 0.443552 4.30768 0.833433C4.2951 0.968717 4.30768 1.10666 4.30768 1.2517H11.6945C11.6945 1.08448 11.6902 0.925249 11.6945 0.766457C11.6938 0.651025 11.7058 0.535876 11.73 0.423148C11.7873 0.201372 11.9672 0.0953636 12.1518 0H12.444C12.8099 0.139719 12.9516 0.416938 12.9256 0.804603C12.9157 0.951418 12.9256 1.09912 12.9256 1.26057C13.2317 1.26057 13.5187 1.24194 13.8022 1.2659C14.0623 1.28852 14.3336 1.32001 14.5768 1.41227C15.4759 1.75203 15.9991 2.57837 15.9991 3.6114C15.9991 7.2908 15.9991 10.9702 15.9991 14.6496C15.9991 14.7383 15.9952 14.827 15.9892 14.9158C15.9072 16.0748 14.967 16.9956 13.8316 16.9973C9.94374 17.0035 6.05569 17.0035 2.16749 16.9973C1.8469 17 1.53053 16.9225 1.24587 16.7716C0.409656 16.3254 0 15.613 0 14.6492C0 10.9976 0 7.34566 0 3.69345C0 3.58878 0 3.48321 0.00736948 3.37853C0.0762957 2.35615 0.752987 1.52271 1.73399 1.3209C2.09987 1.24594 2.48655 1.27654 2.86369 1.26102C2.93132 1.25791 2.99938 1.26102 3.07524 1.26102C3.07524 1.09158 3.08348 0.947426 3.07524 0.804603C3.04619 0.416495 3.18838 0.139275 3.55469 0ZM1.22897 6.6169V6.80098C1.22897 9.41172 1.22897 12.0226 1.22897 14.6337C1.22897 15.3327 1.62432 15.7385 2.30318 15.7385H13.689C14.3735 15.7385 14.7702 15.3393 14.7702 14.6407C14.7702 12.0241 14.7702 9.40714 14.7702 6.78989C14.7702 6.73178 14.7645 6.67368 14.7615 6.61513L1.22897 6.6169ZM1.22897 5.3377H14.7541C14.7541 4.66838 14.7806 4.01015 14.7442 3.35547C14.7216 2.94474 14.452 2.64579 14.0592 2.56861C13.6951 2.4972 13.3123 2.52425 12.9265 2.50518C12.9265 2.72696 12.9265 2.90837 12.9265 3.09022C12.9222 3.48942 12.6664 3.77862 12.3088 3.77906C11.9511 3.7795 11.6984 3.49253 11.6962 3.09022C11.6962 2.90393 11.6962 2.71808 11.6962 2.53312H4.30464C4.30464 2.74913 4.32502 2.95583 4.2977 3.1541C4.27945 3.30516 4.22297 3.44872 4.13384 3.57059C3.96868 3.77684 3.73546 3.82475 3.48359 3.73825C3.23173 3.65176 3.08434 3.42466 3.07784 3.1399C3.0722 2.93764 3.07784 2.73538 3.07784 2.52159C2.76399 2.52159 2.47094 2.51716 2.18223 2.52159C1.70105 2.53002 1.29183 2.89506 1.25064 3.38696C1.21986 3.74934 1.23547 4.11616 1.23244 4.4812C1.22767 4.7633 1.22897 5.04451 1.22897 5.3377Z" fill="#1EBF73"/>
</svg>
