<svg width="25" height="25" viewBox="0 0 25 25" fill="none" xmlns="http://www.w3.org/2000/svg">
<path d="M19.1761 0C21.112 1.93092 23.0533 3.86624 25 5.80597C24.9076 5.90501 24.8431 5.97837 24.7741 6.04733C19.3281 11.4968 13.8798 16.9445 8.4294 22.3905C8.28172 22.535 8.10135 22.6417 7.90361 22.7015C5.37321 23.4508 2.84035 24.1925 0.305057 24.9266C0.219993 24.9508 0.132729 24.9677 0 25C0.0865306 24.6955 0.161328 24.4278 0.239059 24.1607C0.929837 21.793 1.62233 19.4256 2.31653 17.0584C2.36908 16.8865 2.46184 16.7296 2.58712 16.6006C8.02877 11.1473 13.4741 5.69666 18.9231 0.248701C18.9937 0.169578 19.0598 0.0865465 19.1211 0L19.1761 0ZM7.75109 20.6547L19.5574 8.84321L16.1482 5.44062L4.34706 17.247L7.75109 20.6547ZM17.4139 4.13989L20.8458 7.57329L22.5845 5.83091L19.1541 2.40045L17.4139 4.13989ZM6.11287 21.5145L3.48982 18.8896C3.14297 20.081 2.78511 21.3106 2.41112 22.5937L6.11287 21.5145Z" fill="#707070"/>
</svg>
