<svg width="49" height="49" viewBox="0 0 49 49" fill="none" xmlns="http://www.w3.org/2000/svg">
<rect width="49" height="49" fill="#E5E5E5"/>
<rect width="1920" height="3761" transform="translate(-1006 -3666)" fill="white"/>
<path d="M914 -381H-1006V95H914V-381Z" fill="#001741"/>
<g clip-path="url(#clip0_0_1)">
<path fill-rule="evenodd" clip-rule="evenodd" d="M24.5 49C38.031 49 49 38.031 49 24.5C49 10.969 38.031 0 24.5 0C10.969 0 0 10.969 0 24.5C0 38.031 10.969 49 24.5 49Z" fill="#1EBF73"/>
<path d="M33.25 25C33.25 20.7188 29.7812 17.25 25.5 17.25C21.2188 17.25 17.75 20.7188 17.75 25C17.75 28.875 20.5625 32.0938 24.2812 32.6562V27.25H22.3125V25H24.2812V23.3125C24.2812 21.375 25.4375 20.2812 27.1875 20.2812C28.0625 20.2812 28.9375 20.4375 28.9375 20.4375V22.3438H27.9688C27 22.3438 26.6875 22.9375 26.6875 23.5625V25H28.8438L28.5 27.25H26.6875V32.6562C30.4062 32.0938 33.25 28.875 33.25 25Z" fill="white"/>
</g>
<defs>
<clipPath id="clip0_0_1">
<rect width="217" height="49" fill="white"/>
</clipPath>
</defs>
</svg>
