<svg width="49" height="49" viewBox="0 0 49 49" fill="none" xmlns="http://www.w3.org/2000/svg">
<rect width="49" height="49" fill="#E5E5E5"/>
<rect width="1920" height="3761" transform="translate(-1174 -3666)" fill="white"/>
<path d="M746 -381H-1174V95H746V-381Z" fill="#001741"/>
<g clip-path="url(#clip0_0_1)">
<path fill-rule="evenodd" clip-rule="evenodd" d="M24.5 49C38.031 49 49 38.031 49 24.5C49 10.969 38.031 0 24.5 0C10.969 0 0 10.969 0 24.5C0 38.031 10.969 49 24.5 49Z" fill="#1EBF73"/>
<path d="M26.0625 25.1562H20.375V27.2188H23.7812C23.6562 28.0938 22.75 29.8125 20.375 29.8125C18.3438 29.8125 16.6562 28.125 16.6562 26C16.6562 23.9062 18.3438 22.2188 20.375 22.2188C21.5625 22.2188 22.3438 22.7188 22.7812 23.1562L24.4062 21.5938C23.3438 20.5938 22 20 20.375 20C17.0625 20 14.375 22.6875 14.375 26C14.375 29.3438 17.0625 32 20.375 32C23.8438 32 26.1562 29.5938 26.1562 26.1562C26.1562 25.75 26.0938 25.4688 26.0625 25.1562ZM31.8438 25.3438V23.625H30.0938V25.3438H28.3438V27.0938H30.0938V28.8438H31.8438V27.0938H33.5938V25.3438H31.8438Z" fill="white"/>
</g>
<defs>
<clipPath id="clip0_0_1">
<rect width="217" height="49" fill="white" transform="translate(-168)"/>
</clipPath>
</defs>
</svg>
