<svg width="49" height="49" viewBox="0 0 49 49" fill="none" xmlns="http://www.w3.org/2000/svg">
<rect width="49" height="49" fill="#E5E5E5"/>
<rect width="1920" height="3761" transform="translate(-1118 -3666)" fill="white"/>
<path d="M802 -381H-1118V95H802V-381Z" fill="#001741"/>
<g clip-path="url(#clip0_0_1)">
<path fill-rule="evenodd" clip-rule="evenodd" d="M24.5 49C38.031 49 49 38.031 49 24.5C49 10.969 38.031 0 24.5 0C10.969 0 0 10.969 0 24.5C0 38.031 10.969 49 24.5 49Z" fill="#1EBF73"/>
<path d="M21.625 30V20.6562H18.7188V30H21.625ZM20.1562 19.4062C21.0938 19.4062 21.8438 18.625 21.8438 17.6875C21.8438 16.7812 21.0938 16.0312 20.1562 16.0312C19.25 16.0312 18.5 16.7812 18.5 17.6875C18.5 18.625 19.25 19.4062 20.1562 19.4062ZM32.4688 30H32.5V24.875C32.5 22.375 31.9375 20.4375 29 20.4375C27.5938 20.4375 26.6562 21.2188 26.25 21.9375H26.2188V20.6562H23.4375V30H26.3438V25.375C26.3438 24.1562 26.5625 23 28.0625 23C29.5625 23 29.5938 24.375 29.5938 25.4688V30H32.4688Z" fill="white"/>
</g>
<defs>
<clipPath id="clip0_0_1">
<rect width="217" height="49" fill="white" transform="translate(-112)"/>
</clipPath>
</defs>
</svg>
