<svg width="142" height="50" viewBox="0 0 142 50" fill="none" xmlns="http://www.w3.org/2000/svg">
<path d="M15.1891 6.23438C23.6476 6.23438 29.4253 12.3939 29.4253 21.2216C29.4253 22.3463 29.2473 23.5907 29.1269 24.7752H6.96889C8.16005 28.4485 11.4953 30.6978 15.9038 30.6978C18.7626 30.6978 21.5035 29.6903 23.289 27.7352L27.7577 32.1791C24.8989 35.3187 20.7286 37.0368 15.8436 37.0368C6.84852 37.0368 0 30.3437 0 21.6356C0 12.9275 6.55011 6.23438 15.1891 6.23438ZM6.84852 19.3239H22.8125C22.2157 15.1195 19.061 12.5111 15.0688 12.5111C10.9586 12.5136 7.44535 15.2367 6.84852 19.3239Z" fill="#001741"/>
<path d="M50.3919 27.2041C52.714 29.219 56.0517 30.6978 59.387 30.6978C62.3661 30.6978 64.6882 29.4534 64.6882 27.8549C64.6882 25.3662 60.9367 24.5981 58.7324 24.0046C53.8475 22.6431 47.2372 21.2216 47.2372 14.8826C47.2372 9.84778 52.1823 6.23438 58.913 6.23438C63.5598 6.23438 67.8479 7.95255 70.7669 10.5585L66.895 15.2966C64.7509 13.4612 61.7718 12.5709 58.913 12.5709C55.816 12.5709 54.3264 13.6382 54.3264 14.94C54.3264 16.5384 57.3056 17.1918 60.5204 17.9599C66.4185 19.3214 71.7198 21.3962 71.7198 27.7926C71.7198 33.1242 66.4185 37.0318 59.2114 37.0318C54.2662 37.0318 49.8 35.2538 46.2266 31.997L50.3919 27.2041Z" fill="#001741"/>
<path d="M89.7025 6.23438C93.4541 6.23438 96.9096 8.18945 98.8757 10.6183V6.82787H105.905V49.4755H98.8757V32.7127C96.9096 35.0817 93.4541 37.0368 89.7025 37.0368C81.1839 37.0368 74.9297 30.1068 74.9297 21.6356C74.9322 13.1046 81.1864 6.23438 89.7025 6.23438ZM81.9588 21.6356C81.9588 26.2565 85.7705 30.0469 90.4172 30.0469C95.064 30.0469 98.8757 26.2565 98.8757 21.6356C98.8757 17.0147 95.064 13.2243 90.4172 13.2243C85.7705 13.2243 81.9588 17.0147 81.9588 21.6356Z" fill="#001741"/>
<path d="M125.796 6.23438C129.548 6.23438 133.003 8.18945 134.969 10.4986V6.82539H141.999V36.4408H134.969V32.6504C133.003 35.0793 129.55 37.0343 125.796 37.0343C117.278 37.0343 111.023 30.1043 111.023 21.6331C111.023 13.1619 117.28 6.23438 125.796 6.23438ZM118.055 21.6356C118.055 26.2565 121.867 30.0469 126.513 30.0469C131.16 30.0469 134.972 26.2565 134.972 21.6356C134.972 17.0147 131.16 13.2243 126.513 13.2243C121.867 13.2243 118.055 17.0147 118.055 21.6356Z" fill="#001741"/>
<path d="M42.0436 1.47288C41.5746 3.16612 41.1057 4.85686 40.6368 6.5476C39.8569 6.12866 38.8789 5.87679 37.8181 5.87679C36.7599 5.87679 35.7844 6.12616 35.0045 6.55009C34.5355 4.85686 34.0666 3.16362 33.5977 1.47288C36.2859 0.597582 39.3603 0.597582 42.0436 1.47288Z" fill="#1EBF73"/>
<path d="M43.3675 31.4213L37.838 37.8327L32.2734 31.3889L34.9416 8.06261C35.7316 7.62122 36.7321 7.35938 37.8154 7.35938C38.9213 7.35938 39.937 7.6287 40.7319 8.08255L43.3675 31.4213Z" fill="#1EBF73"/>
</svg>
