<svg width="43" height="43" viewBox="0 0 43 43" fill="none" xmlns="http://www.w3.org/2000/svg">
<path d="M37.2531 19.4413C37.2531 22.958 36.2103 26.3958 34.2565 29.3199C32.3027 32.244 29.5256 34.5231 26.2766 35.8689C23.0275 37.2147 19.4523 37.5668 16.0031 36.8807C12.5539 36.1946 9.38562 34.5011 6.89889 32.0144C4.41216 29.5277 2.71867 26.3594 2.03258 22.9102C1.3465 19.461 1.69862 15.8858 3.04443 12.6367C4.39024 9.38766 6.66929 6.61063 9.59338 4.65681C12.5175 2.703 15.9553 1.66016 19.472 1.66016C24.1879 1.66016 28.7106 3.53352 32.0452 6.86812C35.3798 10.2027 37.2531 14.7254 37.2531 19.4413V19.4413Z" stroke="#CECECE" stroke-width="1.91071" stroke-linecap="round" stroke-linejoin="round"/>
<path d="M41.6975 41.6663L32.0293 31.998" stroke="#CECECE" stroke-width="1.91071" stroke-linecap="round" stroke-linejoin="round"/>
</svg>
