<svg width="16" height="15" viewBox="0 0 16 15" fill="none" xmlns="http://www.w3.org/2000/svg">
<path d="M4.4 12.5C4.4 13.6046 3.50457 14.5 2.4 14.5H2C0.89543 14.5 0 13.6046 0 12.5V7.16667C0 6.0621 0.89543 5.16667 2 5.16667H2.4C3.50457 5.16667 4.4 6.0621 4.4 7.16667V12.5ZM10.2 2.5C10.2 1.39543 9.30457 0.5 8.2 0.5H7.8C6.69543 0.5 5.8 1.39543 5.8 2.5V12.5C5.8 13.6046 6.69543 14.5 7.8 14.5H8.2C9.30457 14.5 10.2 13.6046 10.2 12.5V2.5ZM16 8.72222C16 7.61765 15.1046 6.72222 14 6.72222H13.6C12.4954 6.72222 11.6 7.61765 11.6 8.72222V12.5C11.6 13.6046 12.4954 14.5 13.6 14.5H14C15.1046 14.5 16 13.6046 16 12.5V8.72222Z" fill="white"/>
</svg>
