<svg width="33" height="33" viewBox="0 0 33 33" fill="none" xmlns="http://www.w3.org/2000/svg">
<path d="M32.625 27.25L32.625 5.75C32.625 4.32446 32.0587 2.95731 31.0507 1.9493C30.0427 0.941293 28.6755 0.375 27.25 0.375L5.75 0.374999C4.32446 0.374999 2.95731 0.941291 1.9493 1.9493C0.941294 2.95731 0.375 4.32446 0.375 5.75L0.374999 27.25C0.374999 28.6755 0.941292 30.0427 1.9493 31.0507C2.95731 32.0587 4.32446 32.625 5.75 32.625L27.25 32.625C28.6755 32.625 30.0427 32.0587 31.0507 31.0507C32.0587 30.0427 32.625 28.6755 32.625 27.25ZM12.4687 19.2547L12.4687 11.77L10.8966 13.3287C10.6448 13.579 10.3042 13.7195 9.94922 13.7195C9.59422 13.7195 9.25364 13.579 9.00187 13.3287C8.87733 13.2032 8.7788 13.0543 8.71193 12.8906C8.64506 12.7268 8.61116 12.5515 8.61219 12.3747C8.61367 12.0222 8.75363 11.6843 9.00187 11.4341L12.8719 7.5775C13.0593 7.38879 13.2986 7.25996 13.5593 7.20733C13.8201 7.1547 14.0906 7.18065 14.3366 7.28187C14.582 7.38268 14.792 7.55387 14.9403 7.77387C15.0885 7.99387 15.1684 8.25283 15.1697 8.51812L15.1697 19.2681C15.1697 19.6245 15.0281 19.9663 14.7761 20.2183C14.5241 20.4703 14.1823 20.6119 13.8259 20.6119C13.4696 20.6119 13.1278 20.4703 12.8758 20.2183C12.6238 19.9663 12.4822 19.6245 12.4822 19.2681L12.4687 19.2547ZM18.6231 25.7853C18.3899 25.6774 18.1925 25.5048 18.0543 25.2881C17.9162 25.0713 17.8431 24.8195 17.8437 24.5625L17.8437 13.8125C17.8437 13.4561 17.9853 13.1143 18.2373 12.8623C18.4893 12.6103 18.8311 12.4687 19.1875 12.4687C19.5439 12.4687 19.8857 12.6103 20.1377 12.8623C20.3897 13.1143 20.5312 13.4561 20.5312 13.8125L20.5312 21.2972L22.09 19.7384C22.3418 19.4882 22.6823 19.3477 23.0373 19.3477C23.3923 19.3477 23.7329 19.4882 23.9847 19.7384C24.235 19.9902 24.3754 20.3308 24.3754 20.6858C24.3754 21.0408 24.235 21.3814 23.9847 21.6331L20.1416 25.4897C19.9508 25.6866 19.7044 25.8205 19.4354 25.8733C19.1664 25.9262 18.8876 25.8954 18.6366 25.7853L18.6231 25.7853Z" fill="#1EBF73"/>
</svg>
