<svg width="49" height="49" viewBox="0 0 49 49" fill="none" xmlns="http://www.w3.org/2000/svg">
<rect width="49" height="49" fill="#E5E5E5"/>
<rect width="1920" height="3761" transform="translate(-1062 -3666)" fill="white"/>
<path d="M858 -381H-1062V95H858V-381Z" fill="#001741"/>
<g clip-path="url(#clip0_0_1)">
<path fill-rule="evenodd" clip-rule="evenodd" d="M24.5 49C38.031 49 49 38.031 49 24.5C49 10.969 38.031 0 24.5 0C10.969 0 0 10.969 0 24.5C0 38.031 10.969 49 24.5 49Z" fill="#1EBF73"/>
<path d="M31.3438 22.75C31.9688 22.2812 32.5312 21.7188 32.9688 21.0625C32.4062 21.3125 31.75 21.5 31.0938 21.5625C31.7812 21.1562 32.2812 20.5312 32.5312 19.75C31.9062 20.125 31.1875 20.4062 30.4688 20.5625C29.8438 19.9062 29 19.5312 28.0625 19.5312C26.25 19.5312 24.7812 21 24.7812 22.8125C24.7812 23.0625 24.8125 23.3125 24.875 23.5625C22.1562 23.4062 19.7188 22.0938 18.0938 20.125C17.8125 20.5938 17.6562 21.1562 17.6562 21.7812C17.6562 22.9062 18.2188 23.9062 19.125 24.5C18.5938 24.4688 18.0625 24.3438 17.625 24.0938V24.125C17.625 25.7188 18.75 27.0312 20.25 27.3438C20 27.4062 19.6875 27.4688 19.4062 27.4688C19.1875 27.4688 19 27.4375 18.7812 27.4062C19.1875 28.7188 20.4062 29.6562 21.8438 29.6875C20.7188 30.5625 19.3125 31.0938 17.7812 31.0938C17.5 31.0938 17.25 31.0625 17 31.0312C18.4375 31.9688 20.1562 32.5 22.0312 32.5C28.0625 32.5 31.3438 27.5312 31.3438 23.1875C31.3438 23.0312 31.3438 22.9062 31.3438 22.75Z" fill="white"/>
</g>
<defs>
<clipPath id="clip0_0_1">
<rect width="217" height="49" fill="white" transform="translate(-56)"/>
</clipPath>
</defs>
</svg>
